<svg width="20" height="20" viewBox="0 0 20 20" fill="none" xmlns="http://www.w3.org/2000/svg">
<path d="M2.08333 10C2.08333 6.26809 2.08333 4.40212 3.24269 3.24274C4.40207 2.08337 6.26805 2.08337 10 2.08337C13.7319 2.08337 15.5979 2.08337 16.7573 3.24274C17.9167 4.40212 17.9167 6.26809 17.9167 10C17.9167 13.732 17.9167 15.598 16.7573 16.7574C15.5979 17.9167 13.7319 17.9167 10 17.9167C6.26805 17.9167 4.40207 17.9167 3.24269 16.7574C2.08333 15.598 2.08333 13.732 2.08333 10Z" fill="#6E3838" stroke="#6E3838" stroke-width="1.5"/>
<path d="M6.66667 11.4583C6.66667 11.4583 8 12.2188 8.66667 13.3333C8.66667 13.3333 10.6667 8.95833 13.3333 7.5" stroke="white" stroke-width="1.5" stroke-linecap="round" stroke-linejoin="round"/>
</svg>
