<svg width="24" height="25" viewBox="0 0 24 25" fill="none" xmlns="http://www.w3.org/2000/svg">
<path d="M2 12C2 7.52166 2 5.28249 3.39124 3.89124C4.78249 2.5 7.02166 2.5 11.5 2.5C15.9783 2.5 18.2175 2.5 19.6088 3.89124C21 5.28249 21 7.52166 21 12C21 16.4783 21 18.7175 19.6088 20.1088C18.2175 21.5 15.9783 21.5 11.5 21.5C7.02166 21.5 4.78249 21.5 3.39124 20.1088C2 18.7175 2 16.4783 2 12Z" stroke="#FAFAFA" stroke-width="1.5"/>
<path d="M8.5 12H14.5001" stroke="#FAFAFA" stroke-width="1.5" stroke-linecap="round" stroke-linejoin="round"/>
<path d="M9.5 15.5H13.5" stroke="#FAFAFA" stroke-width="1.5" stroke-linecap="round" stroke-linejoin="round"/>
<path d="M7.5 8.5H15.5" stroke="#FAFAFA" stroke-width="1.5" stroke-linecap="round" stroke-linejoin="round"/>
</svg>
