<svg width="24" height="26" viewBox="0 0 24 26" fill="none" xmlns="http://www.w3.org/2000/svg">
<path d="M3 6.5H21M16.0557 6.5L15.3731 5.09173C14.9196 4.15626 14.6928 3.68852 14.3017 3.39681C14.215 3.3321 14.1231 3.27454 14.027 3.2247C13.5939 3 13.0741 3 12.0345 3C10.9688 3 10.436 3 9.99568 3.23412C9.8981 3.28601 9.80498 3.3459 9.71729 3.41317C9.32164 3.7167 9.10063 4.20155 8.65861 5.17126L8.05292 6.5" stroke="#141B34" stroke-width="1.5" stroke-linecap="round"/>
<path d="M19.5 6.5L18.8803 16.5251C18.7219 19.0864 18.6428 20.3671 18.0008 21.2879C17.6833 21.7431 17.2747 22.1273 16.8007 22.416C15.8421 23 14.559 23 11.9927 23C9.42312 23 8.1383 23 7.17905 22.4149C6.7048 22.1257 6.296 21.7408 5.97868 21.2848C5.33688 20.3626 5.25945 19.0801 5.10461 16.5152L4.5 6.5" stroke="#141B34" stroke-width="1.5" stroke-linecap="round"/>
<path d="M9.5 17.875V11.375" stroke="#141B34" stroke-width="1.5" stroke-linecap="round"/>
<path d="M14.5 17.875V11.375" stroke="#141B34" stroke-width="1.5" stroke-linecap="round"/>
</svg>
