<svg width="450" height="170" viewBox="0 0 450 170" fill="none" xmlns="http://www.w3.org/2000/svg">
<path d="M169.526 82.3494C187.974 75.2448 222.118 50.4394 211.109 8.05531C194.262 13.8399 162.36 36.7971 169.526 82.3494Z" fill="#188424"/>
<path d="M11.0815 88.5704H21.6235L37.146 132.938L52.6685 88.5704H63.2104L41.3794 149H32.9126L11.0815 88.5704ZM5.39551 88.5704H15.896L17.8052 131.818V149H5.39551V88.5704ZM58.396 88.5704H68.938V149H56.4868V131.818L58.396 88.5704ZM93.0933 88.5704V149H80.6836V88.5704H93.0933ZM153.938 88.5704V149H141.487L117.207 108.492V149H104.756V88.5704H117.207L141.528 129.12V88.5704H153.938ZM178.01 88.5704V149H165.601V88.5704H178.01ZM221.133 133.187C221.133 132.108 220.967 131.14 220.635 130.282C220.33 129.396 219.749 128.594 218.892 127.875C218.034 127.128 216.83 126.394 215.281 125.675C213.731 124.956 211.725 124.208 209.263 123.434C206.523 122.548 203.923 121.552 201.46 120.445C199.025 119.339 196.867 118.052 194.985 116.586C193.132 115.091 191.665 113.362 190.586 111.398C189.535 109.433 189.009 107.15 189.009 104.549C189.009 102.032 189.562 99.7488 190.669 97.7013C191.776 95.6261 193.325 93.8553 195.317 92.3888C197.31 90.8947 199.661 89.7464 202.373 88.944C205.112 88.1416 208.114 87.7404 211.379 87.7404C215.834 87.7404 219.722 88.5428 223.042 90.1476C226.362 91.7524 228.936 93.9521 230.762 96.7467C232.616 99.5413 233.542 102.737 233.542 106.334H221.174C221.174 104.563 220.801 103.014 220.054 101.686C219.334 100.33 218.228 99.2646 216.733 98.4899C215.267 97.7151 213.413 97.3278 211.172 97.3278C209.014 97.3278 207.215 97.6598 205.776 98.3239C204.338 98.9602 203.258 99.8318 202.539 100.939C201.82 102.018 201.46 103.235 201.46 104.591C201.46 105.615 201.709 106.542 202.207 107.372C202.733 108.202 203.507 108.977 204.531 109.696C205.555 110.415 206.814 111.093 208.308 111.73C209.802 112.366 211.532 112.989 213.496 113.597C216.789 114.593 219.68 115.714 222.17 116.959C224.688 118.204 226.791 119.602 228.479 121.151C230.167 122.7 231.44 124.457 232.297 126.422C233.155 128.387 233.584 130.614 233.584 133.104C233.584 135.733 233.072 138.085 232.048 140.16C231.025 142.235 229.544 143.992 227.607 145.431C225.671 146.87 223.36 147.963 220.676 148.71C217.992 149.457 214.99 149.83 211.67 149.83C208.682 149.83 205.735 149.443 202.83 148.668C199.924 147.866 197.282 146.662 194.902 145.057C192.55 143.452 190.669 141.405 189.258 138.915C187.847 136.424 187.141 133.478 187.141 130.074H199.634C199.634 131.956 199.924 133.547 200.505 134.847C201.086 136.148 201.903 137.199 202.954 138.002C204.033 138.804 205.306 139.385 206.772 139.745C208.267 140.104 209.899 140.284 211.67 140.284C213.828 140.284 215.599 139.98 216.982 139.371C218.394 138.762 219.431 137.919 220.095 136.839C220.787 135.76 221.133 134.543 221.133 133.187ZM269.07 88.5704V149H256.66V88.5704H269.07ZM287.664 88.5704V98.3239H238.357V88.5704H287.664ZM343.237 117.374V120.238C343.237 124.831 342.615 128.954 341.37 132.606C340.125 136.258 338.368 139.371 336.099 141.944C333.83 144.49 331.118 146.441 327.964 147.797C324.837 149.152 321.365 149.83 317.546 149.83C313.756 149.83 310.283 149.152 307.129 147.797C304.002 146.441 301.291 144.49 298.994 141.944C296.698 139.371 294.913 136.258 293.64 132.606C292.395 128.954 291.772 124.831 291.772 120.238V117.374C291.772 112.753 292.395 108.631 293.64 105.006C294.885 101.354 296.642 98.2408 298.911 95.6676C301.208 93.0944 303.919 91.1298 307.046 89.774C310.2 88.4183 313.673 87.7404 317.463 87.7404C321.282 87.7404 324.754 88.4183 327.881 89.774C331.035 91.1298 333.747 93.0944 336.016 95.6676C338.312 98.2408 340.083 101.354 341.328 105.006C342.601 108.631 343.237 112.753 343.237 117.374ZM330.662 120.238V117.291C330.662 114.082 330.371 111.259 329.79 108.824C329.209 106.389 328.351 104.342 327.217 102.682C326.082 101.022 324.699 99.7765 323.066 98.9464C321.434 98.0887 319.566 97.6598 317.463 97.6598C315.361 97.6598 313.493 98.0887 311.86 98.9464C310.256 99.7765 308.886 101.022 307.751 102.682C306.645 104.342 305.801 106.389 305.22 108.824C304.639 111.259 304.348 114.082 304.348 117.291V120.238C304.348 123.42 304.639 126.242 305.22 128.705C305.801 131.14 306.659 133.201 307.793 134.889C308.927 136.549 310.311 137.808 311.943 138.666C313.576 139.523 315.444 139.952 317.546 139.952C319.649 139.952 321.517 139.523 323.149 138.666C324.782 137.808 326.152 136.549 327.258 134.889C328.365 133.201 329.209 131.14 329.79 128.705C330.371 126.242 330.662 123.42 330.662 120.238ZM352.202 88.5704H374.739C379.36 88.5704 383.33 89.2622 386.65 90.6456C389.998 92.0291 392.572 94.0766 394.37 96.7882C396.169 99.4998 397.068 102.834 397.068 106.791C397.068 110.028 396.514 112.809 395.408 115.133C394.329 117.429 392.793 119.352 390.801 120.902C388.836 122.424 386.526 123.641 383.87 124.554L379.927 126.63H360.337L360.254 116.918H374.822C377.008 116.918 378.82 116.53 380.259 115.755C381.698 114.981 382.777 113.902 383.496 112.518C384.243 111.135 384.617 109.53 384.617 107.704C384.617 105.767 384.257 104.093 383.538 102.682C382.818 101.271 381.725 100.192 380.259 99.4445C378.792 98.6974 376.952 98.3239 374.739 98.3239H364.653V149H352.202V88.5704ZM385.986 149L372.207 122.064L385.364 121.981L399.309 148.419V149H385.986ZM447.205 139.288V149H415.039V139.288H447.205ZM419.106 88.5704V149H406.655V88.5704H419.106ZM443.013 113.182V122.645H415.039V113.182H443.013ZM447.163 88.5704V98.3239H415.039V88.5704H447.163Z" fill="white"/>
</svg>
