<svg width="20" height="20" viewBox="0 0 20 20" fill="none" xmlns="http://www.w3.org/2000/svg">
<path d="M3.22733 14.1828L2.22436 8.19984C2.07271 7.29523 1.99689 6.84293 2.23969 6.54647C2.4825 6.25 2.92876 6.25 3.82129 6.25H16.1786C17.0711 6.25 17.5173 6.25 17.7602 6.54647C18.0029 6.84293 17.9271 7.29523 17.7755 8.19984L16.7725 14.1828C16.4401 16.1659 16.2738 17.1574 15.5952 17.7454C14.9166 18.3333 13.9383 18.3333 11.9818 18.3333H8.0181C6.06155 18.3333 5.08328 18.3333 4.40463 17.7454C3.72598 17.1574 3.55976 16.1659 3.22733 14.1828Z" stroke="#FAFAFA" stroke-width="1.5"/>
<path d="M14.5834 6.25C14.5834 3.71869 12.5314 1.66666 10.0001 1.66666C7.46877 1.66666 5.41675 3.71869 5.41675 6.25" stroke="#FAFAFA" stroke-width="1.5"/>
</svg>
