<svg width="20" height="20" viewBox="0 0 20 20" fill="none" xmlns="http://www.w3.org/2000/svg">
<path d="M2.08301 10.0002C2.08301 6.26821 2.08301 4.40224 3.24237 3.24286C4.40175 2.0835 6.26772 2.0835 9.99968 2.0835C13.7316 2.0835 15.5976 2.0835 16.757 3.24286C17.9163 4.40224 17.9163 6.26821 17.9163 10.0002C17.9163 13.7321 17.9163 15.5981 16.757 16.7575C15.5976 17.9168 13.7316 17.9168 9.99968 17.9168C6.26772 17.9168 4.40175 17.9168 3.24237 16.7575C2.08301 15.5981 2.08301 13.7321 2.08301 10.0002Z" fill="#14335A" stroke="#14335A" stroke-width="1.5"/>
<path d="M6.66699 11.4583C6.66699 11.4583 8.00033 12.2188 8.66699 13.3333C8.66699 13.3333 10.667 8.95833 13.3337 7.5" stroke="white" stroke-width="1.5" stroke-linecap="round" stroke-linejoin="round"/>
</svg>
