<svg width="144" height="48" viewBox="0 0 144 48" fill="none" xmlns="http://www.w3.org/2000/svg">
<g clip-path="url(#clip0_215_1135)">
<path d="M25.8587 21.413C25.8302 23.7717 27.8631 25.0878 29.3945 25.8705C30.9678 26.6733 31.4963 27.1883 31.4901 27.9064C31.4784 29.0052 30.2351 29.4902 29.0717 29.5091C27.0419 29.542 25.8617 28.9343 24.9234 28.4747L24.1922 32.063C25.1336 32.5179 26.8766 32.9146 28.6842 32.932C32.9271 32.932 35.7029 30.7355 35.718 27.33C35.7346 23.0079 30.0175 22.7687 30.0566 20.8368C30.07 20.251 30.603 19.6259 31.7709 19.467C32.349 19.3867 33.9448 19.3252 35.7541 20.199L36.4642 16.7273C35.4912 16.3558 34.2407 16 32.6838 16C28.6902 16 25.8814 18.2264 25.8587 21.413ZM43.2877 16.299C42.5129 16.299 41.86 16.773 41.5686 17.5003L35.5078 32.677H39.7476L40.5914 30.2317H45.7723L46.2618 32.677H49.9987L46.7377 16.299H43.2877ZM43.8808 20.7233L45.1044 26.8735H41.7534L43.8808 20.7233ZM20.7182 16.2992L17.3762 32.6768H21.4164L24.7568 16.2988H20.7182M14.7414 16.2988L10.5361 27.4465L8.83503 17.9681C8.63543 16.91 7.84719 16.299 6.97185 16.299H0.0976038L0.00131989 16.7746C1.41257 17.0958 3.016 17.6138 3.98744 18.168C4.58194 18.5066 4.75146 18.8025 4.94676 19.6071L8.16866 32.677H12.4382L18.9839 16.299H14.7414" fill="url(#paint0_linear_215_1135)"/>
</g>
<path d="M84.546 37.4559C81.8847 37.4563 79.283 36.6675 77.0699 35.1893C74.8569 33.7111 73.1319 31.6098 72.113 29.1512C71.0942 26.6926 70.8273 23.9871 71.3462 21.3768C71.865 18.7665 73.1462 16.3687 75.0278 14.4865C76.9093 12.6044 79.3068 11.3225 81.9169 10.8029C84.527 10.2833 87.2326 10.5494 89.6915 11.5675C92.1504 12.5855 94.2522 14.3099 95.7311 16.5225C97.21 18.7351 97.9996 21.3366 98 23.9979V24C97.9963 27.5672 96.5777 30.9873 94.0554 33.51C91.5332 36.0326 88.1133 37.4517 84.546 37.4559Z" fill="#F79E1B"/>
<path d="M71.454 37.4559C68.7927 37.4559 66.1911 36.6668 63.9782 35.1882C61.7654 33.7096 60.0407 31.6081 59.0223 29.1493C58.0038 26.6906 57.7374 23.985 58.2566 21.3748C58.7758 18.7646 60.0573 16.367 61.9392 14.4851C63.821 12.6033 66.2187 11.3217 68.8289 10.8025C71.4391 10.2833 74.1446 10.5498 76.6034 11.5682C79.0621 12.5867 81.1637 14.3114 82.6423 16.5242C84.1208 18.737 84.91 21.3386 84.91 24C84.9063 27.5676 83.4874 30.988 80.9647 33.5107C78.442 36.0334 75.0216 37.4522 71.454 37.4559Z" fill="#EB001B"/>
<g clip-path="url(#clip1_215_1135)">
<path d="M141.467 36.001H108.533C107.861 36.001 107.217 35.7376 106.742 35.2687C106.267 34.7999 106 34.164 106 33.501V22.9843H107.825L108.237 22.001H109.158L109.569 22.9801H113.16V22.2353L113.481 22.9853H115.345L115.666 22.2228V22.9833H124.588V21.3749H124.757C124.878 21.3791 124.912 21.3895 124.912 21.5874V22.9853H129.528V22.6114C130 22.8478 130.556 22.9864 131.146 22.9864L131.247 22.9853H131.241H133.184L133.6 22.0062H134.521L134.927 22.9853H138.67V22.0541L139.236 22.9853H142.23V16.8353H139.267V17.5614L138.852 16.8353H135.806V17.5614L135.425 16.8353H131.311C130.688 16.8043 130.067 16.9308 129.507 17.2031L129.529 17.1937V16.8353H126.692V17.1937C126.349 16.9265 125.915 16.7988 125.479 16.8364H125.486H115.117L114.421 18.4249L113.707 16.8364H110.441V17.5624L110.081 16.8364H107.294L106.003 19.7531V13.5031C106.003 12.84 106.27 12.2041 106.745 11.7353C107.22 11.2664 107.865 11.0031 108.536 11.0031H141.47C142.142 11.0031 142.786 11.2664 143.261 11.7353C143.736 12.2041 144.003 12.84 144.003 13.5031V24.4197H142.026C141.994 24.4176 141.956 24.4176 141.919 24.4176C141.461 24.4176 141.036 24.5531 140.681 24.7853L140.69 24.7801V24.4197H137.766C137.309 24.3948 136.857 24.5229 136.483 24.7833L136.49 24.7791V24.4187H131.269V24.7791C130.842 24.5412 130.359 24.417 129.868 24.4187H129.827H129.829H126.385V24.7791C125.935 24.4946 125.401 24.368 124.869 24.4197L124.879 24.4187H121.025L120.142 25.3603L119.317 24.4187H113.56V30.5728H119.209L120.118 29.6166L120.974 30.5728H124.456V29.1322H124.942C125.409 29.1502 125.874 29.0733 126.31 28.9062L126.287 28.9145V30.5749H129.158V28.9718H129.296C129.471 28.9718 129.489 28.9781 129.489 29.1531V30.576H138.214L138.321 30.5781C138.821 30.5781 139.288 30.4301 139.676 30.177L139.667 30.1822V30.576H142.435L142.567 30.5781C143.085 30.5781 143.578 30.4728 144.025 30.2822L144.001 30.2916V33.502C144.001 34.1651 143.734 34.8009 143.259 35.2698C142.784 35.7386 142.14 36.002 141.468 36.002L141.467 36.001ZM128.277 29.7103H127.203V25.2989H129.669C130.114 25.2582 130.562 25.3321 130.97 25.5135L130.953 25.5072C131.284 25.6864 131.504 26.0281 131.504 26.4197L131.502 26.4895V26.4864L131.503 26.526C131.503 27.0322 131.194 27.4676 130.751 27.6572L130.742 27.6603C130.954 27.7353 131.132 27.8635 131.264 28.0291L131.266 28.0312C131.415 28.2746 131.477 28.5602 131.443 28.8426L131.444 28.8364V29.7093H130.372V29.1572C130.422 28.8566 130.361 28.5481 130.2 28.2885L130.203 28.2937C130.091 28.2102 129.964 28.1499 129.828 28.1164C129.693 28.083 129.551 28.077 129.413 28.0989L129.42 28.0978H128.277V29.7093V29.7103ZM128.277 26.2103V27.201H129.576C129.759 27.2177 129.944 27.1853 130.11 27.1072L130.104 27.1103C130.172 27.0671 130.227 27.0077 130.266 26.9376C130.305 26.8676 130.325 26.7891 130.325 26.7093L130.324 26.6853V26.6864C130.329 26.6068 130.312 26.5273 130.273 26.4573C130.234 26.3872 130.176 26.3294 130.106 26.2906L130.104 26.2895C129.943 26.2188 129.767 26.1901 129.593 26.2062H129.597L128.277 26.2103ZM118.751 29.7093H114.521V25.2989H118.818L120.132 26.7447L121.49 25.2989H124.903C126.115 25.2989 126.704 25.7749 126.704 26.752C126.704 27.7468 126.095 28.2301 124.846 28.2301H123.511V29.7083H121.434L120.119 28.251L118.752 29.7093H118.751ZM122.447 25.7718L120.806 27.5114L122.447 29.3072V25.7718ZM115.587 27.9124V28.7895H118.213L119.427 27.4958L118.259 26.2103H115.585V27.0124H117.931V27.9114L115.587 27.9124ZM123.511 26.2114V27.3343H124.89C125.312 27.3343 125.555 27.1218 125.555 26.751C125.555 26.3968 125.329 26.2103 124.902 26.2103L123.511 26.2114ZM142.551 29.7114H140.488V28.7635H142.542C142.696 28.7844 142.852 28.7447 142.976 28.6531L142.975 28.6541C143.015 28.6178 143.046 28.5738 143.068 28.5249C143.09 28.4759 143.101 28.4231 143.101 28.3697V28.3531C143.101 28.3003 143.089 28.2482 143.067 28.2004C143.044 28.1525 143.012 28.1101 142.971 28.076C142.862 27.9981 142.727 27.9631 142.593 27.9781H142.595L142.398 27.9718C141.433 27.9468 140.34 27.9176 140.34 26.6124C140.34 25.977 140.744 25.2989 141.872 25.2989H144.001V26.2385H142.054C141.903 26.2219 141.751 26.2517 141.619 26.3239L141.623 26.3218C141.571 26.3557 141.529 26.4027 141.502 26.4581C141.474 26.5134 141.463 26.575 141.468 26.6364V26.6353V26.6468C141.468 26.717 141.49 26.7854 141.532 26.8423C141.574 26.8991 141.632 26.9415 141.7 26.9635L141.702 26.9645C141.836 27.0052 141.976 27.0222 142.116 27.0145H142.113L142.692 27.0291C143.129 26.9861 143.565 27.1144 143.907 27.3864L143.904 27.3843C143.936 27.4093 143.963 27.4364 143.987 27.4666L143.988 27.4676L144.001 29.1468C143.824 29.3515 143.598 29.51 143.344 29.6082C143.089 29.7065 142.814 29.7416 142.543 29.7103L142.551 29.7114ZM138.382 29.7114H136.301V28.7635H138.372C138.527 28.7835 138.684 28.744 138.81 28.6531L138.808 28.6541C138.847 28.6177 138.879 28.5736 138.9 28.5247C138.921 28.4758 138.932 28.423 138.932 28.3697V28.3593C138.932 28.3057 138.921 28.2527 138.898 28.2039C138.876 28.155 138.843 28.1114 138.802 28.076C138.691 27.998 138.555 27.9631 138.419 27.9781H138.421L138.225 27.9718C137.263 27.9468 136.172 27.9176 136.172 26.6124C136.172 25.977 136.573 25.2989 137.699 25.2989H139.84V26.2385H137.881C137.732 26.222 137.581 26.2519 137.449 26.3239L137.453 26.3218C137.398 26.3595 137.354 26.4112 137.326 26.4715C137.298 26.5319 137.287 26.5986 137.294 26.6647C137.301 26.7307 137.326 26.7936 137.366 26.8468C137.407 26.8999 137.461 26.9413 137.523 26.9666L137.525 26.9676C137.661 27.0087 137.803 27.0256 137.944 27.0176H137.941L138.516 27.0322C138.956 26.9905 139.394 27.119 139.739 27.3906L139.736 27.3874C139.852 27.5136 139.94 27.6622 139.995 27.8237C140.049 27.9853 140.07 28.1563 140.054 28.326V28.3208C140.057 29.2406 139.493 29.7093 138.379 29.7093L138.382 29.7114ZM135.661 29.7114H132.093V25.2978H135.658V26.2093H133.159V27.0114H135.6V27.9103H133.159V28.7874L135.661 28.7916V29.7083V29.7114ZM137.741 22.1218H135.565L135.149 21.1385H132.93L132.527 22.1218H131.277C130.716 22.151 130.163 21.9765 129.724 21.6312L129.729 21.6343C129.52 21.4067 129.361 21.1386 129.263 20.8472C129.165 20.5558 129.13 20.2473 129.159 19.9416L129.158 19.9499C129.131 19.6386 129.168 19.325 129.267 19.0283C129.367 18.7315 129.526 18.4579 129.736 18.2239L129.734 18.226C129.956 18.0347 130.215 17.8905 130.496 17.8023C130.776 17.7142 131.072 17.6839 131.365 17.7135L131.357 17.7124H132.391V18.6531H131.378C131.229 18.6342 131.079 18.6479 130.936 18.6931C130.794 18.7382 130.664 18.8139 130.554 18.9145L130.555 18.9135C130.33 19.1987 130.22 19.5568 130.248 19.9176V19.9124C130.215 20.2831 130.32 20.6531 130.545 20.952L130.542 20.9478C130.752 21.1171 131.02 21.1986 131.29 21.1749H131.286H131.765L133.276 17.7062H134.88L136.688 21.8728V17.7062H138.315L140.192 20.777V17.7062H141.289V22.1145H139.765L137.738 18.8041V22.1145L137.741 22.1218ZM134.047 18.4572L133.311 20.2156H134.786L134.047 18.4572ZM123.704 22.1197H122.636V17.7093H125.093C125.541 17.6634 125.994 17.7386 126.403 17.927L126.387 17.9208C126.551 18.0104 126.688 18.1418 126.784 18.3014C126.879 18.4609 126.929 18.6428 126.93 18.8281L126.927 18.901V18.8978V18.9301C126.928 19.1707 126.857 19.4062 126.725 19.6083C126.593 19.8105 126.404 19.9707 126.182 20.0697L126.174 20.0728C126.386 20.152 126.564 20.2791 126.7 20.4416L126.703 20.4437C126.853 20.688 126.915 20.9756 126.879 21.2593L126.88 21.2531V22.1187H125.802L125.798 21.5624V21.4791C125.836 21.2071 125.775 20.9305 125.626 20.6989L125.629 20.7041C125.517 20.623 125.39 20.5646 125.256 20.5323C125.121 20.4999 124.981 20.4942 124.844 20.5156L124.85 20.5145H123.705V22.1187L123.704 22.1197ZM123.704 18.627V19.6062H125C125.183 19.6258 125.368 19.5932 125.533 19.5124L125.528 19.5145C125.595 19.4739 125.651 19.4169 125.69 19.3489C125.729 19.2808 125.749 19.2041 125.749 19.126L125.748 19.0968V19.0978C125.754 19.0187 125.736 18.9397 125.696 18.8707C125.656 18.8016 125.597 18.7455 125.526 18.7093L125.524 18.7083C125.363 18.6403 125.188 18.6117 125.014 18.6249H125.017L123.704 18.627ZM112.392 22.1197H110.222L109.812 21.1364H107.586L107.173 22.1197H106.012L107.925 17.7093H109.512L111.328 21.8833V17.7093H113.071L114.469 20.6999L115.753 17.7093H117.532V22.1176H116.434L116.432 18.6676L114.884 22.1187H113.946L112.393 18.6624V22.1187L112.392 22.1197ZM108.694 18.4572L107.966 20.2156H109.425L108.694 18.4572ZM128.631 22.1187H127.542V17.7093H128.632V22.1176L128.631 22.1187ZM121.89 22.1187H118.329V17.7093H121.897V18.626H119.397V19.4208H121.836V20.326H119.395V21.2072H121.895V22.1176L121.89 22.1187Z" fill="#016FD0"/>
</g>
<defs>
<linearGradient id="paint0_linear_215_1135" x1="22.9871" y1="33.2717" x2="23.5011" y2="15.8836" gradientUnits="userSpaceOnUse">
<stop stop-color="#222357"/>
<stop offset="1" stop-color="#254AA5"/>
</linearGradient>
<clipPath id="clip0_215_1135">
<rect width="50" height="17" fill="white" transform="translate(0 16)"/>
</clipPath>
<clipPath id="clip1_215_1135">
<rect width="38" height="25" fill="white" transform="translate(106 11)"/>
</clipPath>
</defs>
</svg>
